<svg xmlns="http://www.w3.org/2000/svg" version="1.1" xmlns:xlink="http://www.w3.org/1999/xlink" xmlns:svgjs="http://svgjs.dev/svgjs" viewBox="0 0 11.177612366871513 12.021358191464387"><g transform="matrix(1,0,0,1,0.9658563543341945,9.350457462130192)"><rect width="12.021358191464387" height="12.021358191464387" x="-1.3877292666306316" y="-9.350457462130192" fill="#ffffff"></rect><g><path d=" M 0.0555 0.8025 Q 0.0585 0.867 0.08925 0.9195000000000001 Q 0.12 0.9720000000000001 0.17325000000000002 1.00875 Q 0.2265 1.0455 0.2985 1.06575 Q 0.3705 1.086 0.456 1.086 Q 0.543 1.086 0.61275 1.0650000000000002 Q 0.6825 1.044 0.732 1.0050000000000001 Q 0.7815 0.9660000000000001 0.8085 0.9105000000000001 Q 0.8355 0.8550000000000001 0.8355 0.7875000000000001 Q 0.8355 0.6945000000000001 0.789 0.6352500000000001 Q 0.7425 0.5760000000000001 0.67275 0.53625 Q 0.603 0.49650000000000005 0.52125 0.46950000000000003 Q 0.4395 0.4425 0.36975 0.4125000000000001 Q 0.3 0.38250000000000006 0.2535 0.3435 Q 0.20700000000000002 0.3045 0.20700000000000002 0.24 Q 0.20700000000000002 0.20400000000000007 0.22275 0.1725 Q 0.23850000000000002 0.14100000000000001 0.26925 0.11775000000000002 Q 0.3 0.09450000000000003 0.34500000000000003 0.08025000000000004 Q 0.39 0.06600000000000006 0.4485 0.06600000000000006 Q 0.546 0.06600000000000006 0.61425 0.10725000000000007 Q 0.6825 0.14850000000000008 0.6945 0.237 L 0.7965 0.237 Q 0.7875 0.1815 0.756 0.1372500000000001 Q 0.7245 0.09300000000000008 0.6765 0.06225000000000014 Q 0.6285000000000001 0.031500000000000083 0.56775 0.01574999999999993 Q 0.507 0 0.441 0 Q 0.372 0 0.30975 0.018000000000000016 Q 0.2475 0.03600000000000003 0.20025 0.07050000000000001 Q 0.153 0.1050000000000001 0.12525 0.15750000000000008 Q 0.0975 0.21000000000000008 0.0975 0.2775000000000001 Q 0.0975 0.366 0.14250000000000002 0.42000000000000004 Q 0.1875 0.4740000000000001 0.25575000000000003 0.51 Q 0.324 0.546 0.4035 0.5715000000000001 Q 0.483 0.597 0.55125 0.6292500000000001 Q 0.6195 0.6615 0.6645 0.7080000000000001 Q 0.7095 0.7545000000000001 0.7095 0.8325 Q 0.7095 0.93 0.63825 0.9750000000000001 Q 0.5670000000000001 1.02 0.4485 1.02 Q 0.354 1.02 0.297 0.9952500000000001 Q 0.24 0.9705 0.21 0.936 Q 0.18 0.9015000000000001 0.1695 0.86475 Q 0.159 0.8280000000000001 0.1575 0.8025 L 0.0555 0.8025 M 1.521 1.068 L 1.521 0.10050000000000003 L 1.923 0.10050000000000003 L 1.923 0.018000000000000016 L 0.9825 0.018000000000000016 L 0.9825 0.10050000000000003 L 1.3845 0.10050000000000003 L 1.3845 1.068 L 1.521 1.068 M 2.55149560546875 0.7590000000000001 L 2.69549560546875 1.068 L 2.84099560546875 1.068 L 2.3519956054687503 0.018000000000000016 L 2.27699560546875 0.018000000000000016 L 1.83299560546875 1.068 L 1.9019956054687501 1.068 L 2.03399560546875 0.7590000000000001 L 2.55149560546875 0.7590000000000001 M 2.51999560546875 0.6915 L 2.06249560546875 0.6915 L 2.27849560546875 0.18600000000000005 L 2.28449560546875 0.18600000000000005 L 2.51999560546875 0.6915 M 3.9269875488281247 0.018000000000000016 L 3.9269875488281247 0.8205 L 3.920987548828125 0.8205 L 3.088487548828125 0 L 3.080987548828125 0 L 3.080987548828125 1.068 L 3.149987548828125 1.068 L 3.149987548828125 0.26550000000000007 L 3.155987548828125 0.26550000000000007 L 3.9884875488281253 1.086 L 3.9959875488281247 1.086 L 3.9959875488281247 0.018000000000000016 L 3.9269875488281247 0.018000000000000016 M 5.326450927734376 0.6000000000000001 L 5.029450927734375 0.6000000000000001 L 5.029450927734375 0.6615 L 5.1974509277343754 0.6615 L 5.1974509277343754 0.933 Q 5.1299509277343756 0.9765 5.0594509277343755 0.9975 Q 4.9889509277343755 1.0185 4.898950927734376 1.0185 Q 4.780450927734376 1.0185 4.691950927734376 0.9825 Q 4.603450927734375 0.9465000000000001 4.544950927734376 0.88275 Q 4.486450927734375 0.8190000000000001 4.457200927734376 0.7312500000000001 Q 4.427950927734376 0.6435000000000001 4.427950927734376 0.5385000000000001 Q 4.427950927734376 0.43500000000000005 4.455700927734376 0.3480000000000001 Q 4.483450927734376 0.261 4.538950927734375 0.19800000000000006 Q 4.594450927734376 0.135 4.674700927734375 0.10050000000000003 Q 4.7549509277343756 0.06600000000000006 4.861450927734375 0.06600000000000006 Q 4.931950927734375 0.06600000000000006 4.993450927734376 0.08100000000000007 Q 5.054950927734375 0.09600000000000009 5.102950927734375 0.12 Q 5.1509509277343755 0.14400000000000002 5.181700927734376 0.17475000000000007 Q 5.212450927734375 0.20550000000000002 5.2214509277343755 0.237 L 5.329450927734376 0.237 Q 5.3159509277343755 0.20400000000000007 5.283700927734376 0.16275000000000006 Q 5.251450927734376 0.12150000000000005 5.195950927734375 0.08550000000000002 Q 5.140450927734376 0.0495000000000001 5.0587009277343755 0.02475000000000005 Q 4.976950927734375 0 4.865950927734375 0 Q 4.738450927734376 0 4.631200927734375 0.03600000000000003 Q 4.523950927734376 0.07200000000000006 4.445950927734375 0.13950000000000007 Q 4.367950927734375 0.20700000000000007 4.324450927734375 0.30525 Q 4.280950927734375 0.4035000000000001 4.280950927734375 0.528 Q 4.280950927734375 0.6345000000000001 4.314700927734376 0.7342500000000001 Q 4.348450927734375 0.8340000000000001 4.418200927734375 0.9127500000000001 Q 4.487950927734375 0.9915 4.595950927734376 1.03875 Q 4.703950927734375 1.086 4.853950927734376 1.086 Q 4.966450927734376 1.086 5.053450927734375 1.06125 Q 5.140450927734376 1.0365 5.1974509277343754 1.0065 L 5.1974509277343754 1.068 L 5.326450927734376 1.068 L 5.326450927734376 0.6000000000000001 M 5.611475830078126 1.068 L 5.611475830078126 0.018000000000000016 L 5.747975830078126 0.018000000000000016 L 5.747975830078126 0.9855 L 6.289475830078126 0.9855 L 6.289475830078126 1.068 L 5.611475830078126 1.068 M 6.424460449218751 0.543 Q 6.424460449218751 0.627 6.45671044921875 0.7222500000000001 Q 6.488960449218751 0.8175000000000001 6.557960449218751 0.8985000000000001 Q 6.626960449218751 0.9795 6.733460449218751 1.03275 Q 6.839960449218751 1.086 6.988460449218751 1.086 Q 7.088960449218751 1.086 7.170710449218751 1.06125 Q 7.25246044921875 1.0365 7.317710449218751 0.9945 Q 7.382960449218751 0.9525 7.430960449218751 0.89775 Q 7.478960449218751 0.8430000000000001 7.509710449218751 0.7822500000000001 Q 7.540460449218751 0.7215 7.556210449218751 0.66 Q 7.571960449218751 0.5985 7.571960449218751 0.543 Q 7.571960449218751 0.4590000000000001 7.5374604492187505 0.36375 Q 7.502960449218751 0.26850000000000007 7.430960449218751 0.1875 Q 7.358960449218751 0.10650000000000004 7.248710449218751 0.05325000000000002 Q 7.1384604492187504 0 6.988460449218751 0 Q 6.839960449218751 0 6.733460449218751 0.05249999999999999 Q 6.626960449218751 0.1050000000000001 6.557960449218751 0.18525000000000003 Q 6.488960449218751 0.26550000000000007 6.45671044921875 0.36150000000000004 Q 6.424460449218751 0.4575 6.424460449218751 0.543 M 6.571460449218751 0.543 Q 6.571460449218751 0.43800000000000006 6.603710449218751 0.35025000000000006 Q 6.635960449218751 0.26250000000000007 6.69221044921875 0.1995 Q 6.748460449218751 0.13650000000000007 6.824960449218751 0.10125000000000006 Q 6.901460449218751 0.06600000000000006 6.991460449218751 0.06600000000000006 Q 7.079960449218751 0.06600000000000006 7.15871044921875 0.10125000000000006 Q 7.237460449218751 0.13650000000000007 7.296710449218751 0.1995 Q 7.355960449218751 0.26250000000000007 7.39046044921875 0.35025000000000006 Q 7.424960449218751 0.43800000000000006 7.424960449218751 0.543 Q 7.424960449218751 0.6480000000000001 7.39046044921875 0.7357500000000001 Q 7.355960449218751 0.8235000000000001 7.296710449218751 0.8865000000000001 Q 7.237460449218751 0.9495 7.15871044921875 0.98475 Q 7.079960449218751 1.02 6.991460449218751 1.02 Q 6.901460449218751 1.02 6.824960449218751 0.98475 Q 6.748460449218751 0.9495 6.69221044921875 0.8865000000000001 Q 6.635960449218751 0.8235000000000001 6.603710449218751 0.7357500000000001 Q 6.571460449218751 0.6480000000000001 6.571460449218751 0.543 M 7.70694580078125 0.018000000000000016 L 8.07894580078125 1.068 L 8.16894580078125 1.068 L 8.45544580078125 0.24750000000000005 L 8.46294580078125 0.24750000000000005 L 8.74044580078125 1.068 L 8.82894580078125 1.068 L 9.20094580078125 0.018000000000000016 L 9.131945800781251 0.018000000000000016 L 8.82144580078125 0.894 L 8.81544580078125 0.894 L 8.522945800781251 0.018000000000000016 L 8.45844580078125 0.018000000000000016 L 8.15994580078125 0.8895000000000001 L 8.153945800781251 0.8895000000000001 L 7.84494580078125 0.018000000000000016 L 7.70694580078125 0.018000000000000016" fill="#102036" fill-rule="nonzero"></path></g><g><path d=" M 1.170366030395507 1.7010318749999995 Q 1.166353530395507 1.7010318749999995 1.163946030395507 1.6986243749999996 Q 1.161538530395507 1.6962168749999995 1.161538530395507 1.6922043749999995 L 1.161538530395507 1.4289843749999995 Q 1.161538530395507 1.4249718749999996 1.163946030395507 1.4225643749999994 Q 1.166353530395507 1.4201568749999995 1.170366030395507 1.4201568749999995 L 1.177989780395507 1.4201568749999995 Q 1.182002280395507 1.4201568749999995 1.184409780395507 1.4225643749999994 Q 1.186817280395507 1.4249718749999996 1.186817280395507 1.4289843749999995 L 1.186817280395507 1.6769568749999995 L 1.325248530395507 1.6769568749999995 Q 1.329662280395507 1.6769568749999995 1.332069780395507 1.6793643749999996 Q 1.334477280395507 1.6817718749999995 1.334477280395507 1.6861856249999996 L 1.334477280395507 1.6922043749999995 Q 1.334477280395507 1.6962168749999995 1.332069780395507 1.6986243749999996 Q 1.329662280395507 1.7010318749999995 1.325248530395507 1.7010318749999995 L 1.170366030395507 1.7010318749999995 M 1.7308269364013662 1.7050443749999995 Q 1.6975231864013662 1.7050443749999995 1.6742506864013662 1.6932074999999995 Q 1.6509781864013662 1.6813706249999996 1.6385394364013663 1.6566937499999996 Q 1.6261006864013663 1.6320168749999995 1.6248969364013663 1.5942993749999994 Q 1.6244956864013662 1.5762431249999995 1.6244956864013662 1.5605943749999995 Q 1.6244956864013662 1.5449456249999995 1.6248969364013663 1.5268893749999994 Q 1.6261006864013663 1.4895731249999995 1.6393419364013662 1.4648962499999996 Q 1.6525831864013663 1.4402193749999994 1.6760563114013662 1.4281818749999995 Q 1.6995294364013662 1.4161443749999996 1.7308269364013662 1.4161443749999996 Q 1.7621244364013662 1.4161443749999996 1.7855975614013662 1.4281818749999995 Q 1.8090706864013661 1.4402193749999994 1.8225125614013662 1.4648962499999996 Q 1.8359544364013662 1.4895731249999995 1.8367569364013663 1.5268893749999994 Q 1.8375594364013663 1.5449456249999995 1.8375594364013663 1.5605943749999995 Q 1.8375594364013663 1.5762431249999995 1.8367569364013663 1.5942993749999994 Q 1.8359544364013662 1.6320168749999995 1.8233150614013662 1.6566937499999996 Q 1.8106756864013662 1.6813706249999996 1.7874031864013662 1.6932074999999995 Q 1.7641306864013662 1.7050443749999995 1.7308269364013662 1.7050443749999995 M 1.7308269364013662 1.6809693749999994 Q 1.7653344364013663 1.6809693749999994 1.7876038114013664 1.6601043749999995 Q 1.8098731864013662 1.6392393749999996 1.8114781864013663 1.5922931249999994 Q 1.8122806864013663 1.5742368749999995 1.8122806864013663 1.5605943749999995 Q 1.8122806864013663 1.5469518749999995 1.8114781864013663 1.5288956249999994 Q 1.8106756864013662 1.4975981249999994 1.8000425614013662 1.4779368749999995 Q 1.7894094364013662 1.4582756249999995 1.7715538114013663 1.4492474999999996 Q 1.7536981864013663 1.4402193749999994 1.7308269364013662 1.4402193749999994 Q 1.7083569364013662 1.4402193749999994 1.6905013114013663 1.4492474999999996 Q 1.6726456864013663 1.4582756249999995 1.6620125614013663 1.4779368749999995 Q 1.6513794364013663 1.4975981249999994 1.6501756864013664 1.5288956249999994 Q 1.6497744364013662 1.5469518749999995 1.6497744364013662 1.5605943749999995 Q 1.6497744364013662 1.5742368749999995 1.6501756864013664 1.5922931249999994 Q 1.6517806864013662 1.6392393749999996 1.6742506864013662 1.6601043749999995 Q 1.6967206864013662 1.6809693749999994 1.7308269364013662 1.6809693749999994 M 2.2551753424072256 1.7050443749999995 Q 2.2186615924072255 1.7050443749999995 2.1955897174072256 1.6907999999999994 Q 2.172517842407226 1.6765556249999995 2.1612828424072257 1.6520793749999996 Q 2.1500478424072256 1.6276031249999996 2.148844092407226 1.5963056249999996 Q 2.1484428424072255 1.5798543749999996 2.1484428424072255 1.5609956249999994 Q 2.1484428424072255 1.5421368749999995 2.148844092407226 1.5248831249999995 Q 2.1500478424072256 1.4935856249999995 2.1612828424072257 1.4689087499999995 Q 2.172517842407226 1.4442318749999994 2.1955897174072256 1.4301881249999995 Q 2.2186615924072255 1.4161443749999996 2.2551753424072256 1.4161443749999996 Q 2.283664092407226 1.4161443749999996 2.3037265924072257 1.4241693749999995 Q 2.3237890924072255 1.4321943749999995 2.3364284674072255 1.4452349999999994 Q 2.3490678424072255 1.4582756249999995 2.3552872174072257 1.4733224999999994 Q 2.361506592407226 1.4883693749999996 2.3623090924072256 1.5028143749999996 Q 2.3627103424072255 1.5064256249999994 2.3601022174072255 1.5086324999999996 Q 2.357494092407226 1.5108393749999995 2.353882842407226 1.5108393749999995 L 2.345857842407226 1.5108393749999995 Q 2.3426478424072257 1.5108393749999995 2.340240342407226 1.5090337499999995 Q 2.3378328424072254 1.5072281249999995 2.3370303424072256 1.5024131249999995 Q 2.3294065924072256 1.4667018749999996 2.3083409674072257 1.4534606249999995 Q 2.287275342407226 1.4402193749999994 2.2551753424072256 1.4402193749999994 Q 2.2186615924072255 1.4402193749999994 2.1971947174072257 1.4608837499999996 Q 2.1757278424072255 1.4815481249999995 2.174122842407226 1.5268893749999994 Q 2.1729190924072257 1.5597918749999995 2.174122842407226 1.5942993749999994 Q 2.1757278424072255 1.6396406249999995 2.1971947174072257 1.6603049999999995 Q 2.2186615924072255 1.6809693749999994 2.2551753424072256 1.6809693749999994 Q 2.287275342407226 1.6809693749999994 2.3083409674072257 1.6677281249999996 Q 2.3294065924072256 1.6544868749999995 2.3370303424072256 1.6187756249999996 Q 2.3378328424072254 1.6139606249999996 2.340240342407226 1.6121549999999996 Q 2.3426478424072257 1.6103493749999995 2.345857842407226 1.6103493749999995 L 2.353882842407226 1.6103493749999995 Q 2.357494092407226 1.6103493749999995 2.3601022174072255 1.6125562499999995 Q 2.3627103424072255 1.6147631249999996 2.3623090924072256 1.6183743749999995 Q 2.361506592407226 1.6328193749999995 2.3552872174072257 1.6478662499999994 Q 2.3490678424072255 1.6629131249999995 2.3364284674072255 1.6759537499999995 Q 2.3237890924072255 1.6889943749999996 2.3037265924072257 1.6970193749999996 Q 2.283664092407226 1.7050443749999995 2.2551753424072256 1.7050443749999995 M 2.657556679321288 1.7010318749999995 Q 2.654346679321288 1.7010318749999995 2.651939179321288 1.6986243749999996 Q 2.649531679321288 1.6962168749999995 2.649531679321288 1.6930068749999996 Q 2.649531679321288 1.6910006249999996 2.650334179321288 1.6885931249999995 L 2.751850429321288 1.4281818749999995 Q 2.753455429321288 1.4241693749999995 2.756063554321288 1.4221631249999995 Q 2.758671679321288 1.4201568749999995 2.763486679321288 1.4201568749999995 L 2.777129179321288 1.4201568749999995 Q 2.7819441793212882 1.4201568749999995 2.7845523043212883 1.4221631249999995 Q 2.7871604293212884 1.4241693749999995 2.788765429321288 1.4281818749999995 L 2.890281679321288 1.6885931249999995 Q 2.8910841793212883 1.6910006249999996 2.8910841793212883 1.6930068749999996 Q 2.8910841793212883 1.6962168749999995 2.8886766793212884 1.6986243749999996 Q 2.886269179321288 1.7010318749999995 2.8830591793212883 1.7010318749999995 L 2.8750341793212884 1.7010318749999995 Q 2.8710216793212884 1.7010318749999995 2.869015429321288 1.6988249999999996 Q 2.867009179321288 1.6966181249999994 2.866206679321288 1.6950131249999996 L 2.841329179321288 1.6308131249999995 L 2.699286679321288 1.6308131249999995 L 2.6744091793212883 1.6950131249999996 Q 2.674007929321288 1.6966181249999994 2.6718010543212882 1.6988249999999996 Q 2.669594179321288 1.7010318749999995 2.665581679321288 1.7010318749999995 L 2.657556679321288 1.7010318749999995 M 2.708916679321288 1.6067381249999995 L 2.831699179321288 1.6067381249999995 L 2.770307929321288 1.4486456249999995 L 2.708916679321288 1.6067381249999995 M 3.2059949754638666 1.7010318749999995 Q 3.2019824754638666 1.7010318749999995 3.1995749754638667 1.6986243749999996 Q 3.1971674754638664 1.6962168749999995 3.1971674754638664 1.6922043749999995 L 3.1971674754638664 1.4289843749999995 Q 3.1971674754638664 1.4249718749999996 3.1995749754638667 1.4225643749999994 Q 3.2019824754638666 1.4201568749999995 3.2059949754638666 1.4201568749999995 L 3.2136187254638666 1.4201568749999995 Q 3.2176312254638666 1.4201568749999995 3.2200387254638665 1.4225643749999994 Q 3.2224462254638664 1.4249718749999996 3.2224462254638664 1.4289843749999995 L 3.2224462254638664 1.6769568749999995 L 3.3608774754638664 1.6769568749999995 Q 3.3652912254638667 1.6769568749999995 3.3676987254638666 1.6793643749999996 Q 3.3701062254638665 1.6817718749999995 3.3701062254638665 1.6861856249999996 L 3.3701062254638665 1.6922043749999995 Q 3.3701062254638665 1.6962168749999995 3.3676987254638666 1.6986243749999996 Q 3.3652912254638667 1.7010318749999995 3.3608774754638664 1.7010318749999995 L 3.2059949754638666 1.7010318749999995 M 4.086975752929686 1.7010318749999995 Q 4.082963252929686 1.7010318749999995 4.080555752929687 1.6986243749999996 Q 4.078148252929687 1.6962168749999995 4.078148252929687 1.6922043749999995 L 4.078148252929687 1.4442318749999994 L 3.9987007529296865 1.4442318749999994 Q 3.9946882529296865 1.4442318749999994 3.9922807529296866 1.4418243749999995 Q 3.9898732529296868 1.4394168749999996 3.9898732529296868 1.4354043749999996 L 3.9898732529296868 1.4293856249999994 Q 3.9898732529296868 1.4249718749999996 3.9922807529296866 1.4225643749999994 Q 3.9946882529296865 1.4201568749999995 3.9987007529296865 1.4201568749999995 L 4.182473252929687 1.4201568749999995 Q 4.186887002929686 1.4201568749999995 4.189294502929687 1.4225643749999994 Q 4.191702002929687 1.4249718749999996 4.191702002929687 1.4293856249999994 L 4.191702002929687 1.4354043749999996 Q 4.191702002929687 1.4394168749999996 4.189294502929687 1.4418243749999995 Q 4.186887002929686 1.4442318749999994 4.182473252929687 1.4442318749999994 L 4.103427002929687 1.4442318749999994 L 4.103427002929687 1.6922043749999995 Q 4.103427002929687 1.6962168749999995 4.101019502929686 1.6986243749999996 Q 4.098612002929687 1.7010318749999995 4.0941982529296865 1.7010318749999995 L 4.086975752929686 1.7010318749999995 M 4.587245436401367 1.7050443749999995 Q 4.553941686401367 1.7050443749999995 4.530669186401367 1.6932074999999995 Q 4.507396686401367 1.6813706249999996 4.4949579364013665 1.6566937499999996 Q 4.482519186401366 1.6320168749999995 4.481315436401366 1.5942993749999994 Q 4.480914186401367 1.5762431249999995 4.480914186401367 1.5605943749999995 Q 4.480914186401367 1.5449456249999995 4.481315436401366 1.5268893749999994 Q 4.482519186401366 1.4895731249999995 4.495760436401366 1.4648962499999996 Q 4.5090016864013664 1.4402193749999994 4.532474811401366 1.4281818749999995 Q 4.555947936401367 1.4161443749999996 4.587245436401367 1.4161443749999996 Q 4.618542936401367 1.4161443749999996 4.642016061401367 1.4281818749999995 Q 4.665489186401366 1.4402193749999994 4.678931061401366 1.4648962499999996 Q 4.692372936401367 1.4895731249999995 4.693175436401367 1.5268893749999994 Q 4.6939779364013665 1.5449456249999995 4.6939779364013665 1.5605943749999995 Q 4.6939779364013665 1.5762431249999995 4.693175436401367 1.5942993749999994 Q 4.692372936401367 1.6320168749999995 4.679733561401367 1.6566937499999996 Q 4.667094186401367 1.6813706249999996 4.643821686401367 1.6932074999999995 Q 4.620549186401367 1.7050443749999995 4.587245436401367 1.7050443749999995 M 4.587245436401367 1.6809693749999994 Q 4.621752936401366 1.6809693749999994 4.644022311401367 1.6601043749999995 Q 4.666291686401366 1.6392393749999996 4.667896686401367 1.5922931249999994 Q 4.6686991864013665 1.5742368749999995 4.6686991864013665 1.5605943749999995 Q 4.6686991864013665 1.5469518749999995 4.667896686401367 1.5288956249999994 Q 4.667094186401367 1.4975981249999994 4.656461061401367 1.4779368749999995 Q 4.645827936401367 1.4582756249999995 4.627972311401367 1.4492474999999996 Q 4.6101166864013665 1.4402193749999994 4.587245436401367 1.4402193749999994 Q 4.564775436401367 1.4402193749999994 4.5469198114013665 1.4492474999999996 Q 4.529064186401366 1.4582756249999995 4.518431061401366 1.4779368749999995 Q 4.507797936401366 1.4975981249999994 4.506594186401366 1.5288956249999994 Q 4.506192936401367 1.5469518749999995 4.506192936401367 1.5605943749999995 Q 4.506192936401367 1.5742368749999995 4.506594186401366 1.5922931249999994 Q 4.508199186401367 1.6392393749999996 4.530669186401367 1.6601043749999995 Q 4.553139186401366 1.6809693749999994 4.587245436401367 1.6809693749999994 M 5.475044329101561 1.7050443749999995 Q 5.4405368291015614 1.7050443749999995 5.417063704101561 1.6916024999999995 Q 5.393590579101561 1.6781606249999996 5.381352454101561 1.6540856249999996 Q 5.369114329101561 1.6300106249999995 5.367910579101561 1.5987131249999995 Q 5.367509329101561 1.5806568749999994 5.367509329101561 1.5605943749999995 Q 5.367509329101561 1.5405318749999994 5.367910579101561 1.5224756249999996 Q 5.369114329101561 1.4907768749999994 5.381352454101561 1.4669024999999996 Q 5.393590579101561 1.4430281249999994 5.417264329101561 1.4295862499999994 Q 5.440938079101561 1.4161443749999996 5.475044329101561 1.4161443749999996 Q 5.502730579101561 1.4161443749999996 5.5223918291015615 1.4243699999999995 Q 5.542053079101561 1.4325956249999996 5.554491829101561 1.4448337499999995 Q 5.566930579101561 1.4570718749999996 5.572949329101561 1.4695106249999994 Q 5.5789680791015615 1.4819493749999995 5.579369329101561 1.4903756249999995 Q 5.579770579101561 1.4939868749999996 5.577363079101561 1.4961937499999995 Q 5.574955579101561 1.4984006249999995 5.570943079101561 1.4984006249999995 L 5.562115579101561 1.4984006249999995 Q 5.558504329101561 1.4984006249999995 5.556899329101561 1.4965949999999995 Q 5.555294329101561 1.4947893749999994 5.553689329101561 1.4903756249999995 Q 5.549676829101561 1.4779368749999995 5.540247454101561 1.4665012499999994 Q 5.530818079101561 1.4550656249999996 5.514968704101561 1.4476424999999995 Q 5.499119329101561 1.4402193749999994 5.475044329101561 1.4402193749999994 Q 5.439333079101561 1.4402193749999994 5.417063704101561 1.4596799999999994 Q 5.394794329101561 1.4791406249999994 5.393189329101561 1.5244818749999995 Q 5.391985579101561 1.5605943749999995 5.393189329101561 1.5967068749999995 Q 5.394794329101561 1.6416468749999995 5.417063704101561 1.6613081249999995 Q 5.439333079101561 1.6809693749999994 5.475044329101561 1.6809693749999994 Q 5.498718079101561 1.6809693749999994 5.517576829101561 1.6719412499999995 Q 5.536435579101561 1.6629131249999995 5.547269329101561 1.6442549999999996 Q 5.558103079101561 1.6255968749999996 5.558103079101561 1.5967068749999995 L 5.558103079101561 1.5762431249999995 L 5.488285579101561 1.5762431249999995 Q 5.484273079101561 1.5762431249999995 5.481865579101561 1.5736349999999995 Q 5.479458079101561 1.5710268749999996 5.479458079101561 1.5670143749999994 L 5.479458079101561 1.5613968749999996 Q 5.479458079101561 1.5569831249999995 5.481865579101561 1.5545756249999996 Q 5.484273079101561 1.5521681249999995 5.488285579101561 1.5521681249999995 L 5.574153079101561 1.5521681249999995 Q 5.578566829101561 1.5521681249999995 5.580974329101561 1.5545756249999996 Q 5.583381829101561 1.5569831249999995 5.583381829101561 1.5613968749999996 L 5.583381829101561 1.5967068749999995 Q 5.583381829101561 1.6288068749999995 5.570742454101561 1.6532831249999995 Q 5.558103079101561 1.6777593749999995 5.533827454101561 1.6914018749999995 Q 5.509551829101561 1.7050443749999995 5.475044329101561 1.7050443749999995 M 5.912728416870116 1.7010318749999995 Q 5.908715916870116 1.7010318749999995 5.906308416870115 1.6986243749999996 Q 5.903900916870116 1.6962168749999995 5.903900916870116 1.6922043749999995 L 5.903900916870116 1.4289843749999995 Q 5.903900916870116 1.4249718749999996 5.906308416870115 1.4225643749999994 Q 5.908715916870116 1.4201568749999995 5.912728416870116 1.4201568749999995 L 5.920352166870115 1.4201568749999995 Q 5.924364666870115 1.4201568749999995 5.926772166870116 1.4225643749999994 Q 5.929179666870116 1.4249718749999996 5.929179666870116 1.4289843749999995 L 5.929179666870116 1.6769568749999995 L 6.067610916870116 1.6769568749999995 Q 6.072024666870115 1.6769568749999995 6.074432166870116 1.6793643749999996 Q 6.076839666870116 1.6817718749999995 6.076839666870116 1.6861856249999996 L 6.076839666870116 1.6922043749999995 Q 6.076839666870116 1.6962168749999995 6.074432166870116 1.6986243749999996 Q 6.072024666870115 1.7010318749999995 6.067610916870116 1.7010318749999995 L 5.912728416870116 1.7010318749999995 M 6.473189322875975 1.7050443749999995 Q 6.439885572875975 1.7050443749999995 6.416613072875975 1.6932074999999995 Q 6.393340572875975 1.6813706249999996 6.380901822875975 1.6566937499999996 Q 6.368463072875975 1.6320168749999995 6.367259322875975 1.5942993749999994 Q 6.366858072875975 1.5762431249999995 6.366858072875975 1.5605943749999995 Q 6.366858072875975 1.5449456249999995 6.367259322875975 1.5268893749999994 Q 6.368463072875975 1.4895731249999995 6.381704322875975 1.4648962499999996 Q 6.394945572875975 1.4402193749999994 6.418418697875975 1.4281818749999995 Q 6.441891822875975 1.4161443749999996 6.473189322875975 1.4161443749999996 Q 6.504486822875975 1.4161443749999996 6.527959947875975 1.4281818749999995 Q 6.551433072875975 1.4402193749999994 6.564874947875975 1.4648962499999996 Q 6.578316822875975 1.4895731249999995 6.579119322875975 1.5268893749999994 Q 6.579921822875975 1.5449456249999995 6.579921822875975 1.5605943749999995 Q 6.579921822875975 1.5762431249999995 6.579119322875975 1.5942993749999994 Q 6.578316822875975 1.6320168749999995 6.565677447875975 1.6566937499999996 Q 6.553038072875975 1.6813706249999996 6.529765572875975 1.6932074999999995 Q 6.506493072875975 1.7050443749999995 6.473189322875975 1.7050443749999995 M 6.473189322875975 1.6809693749999994 Q 6.507696822875975 1.6809693749999994 6.529966197875975 1.6601043749999995 Q 6.552235572875975 1.6392393749999996 6.553840572875975 1.5922931249999994 Q 6.554643072875975 1.5742368749999995 6.554643072875975 1.5605943749999995 Q 6.554643072875975 1.5469518749999995 6.553840572875975 1.5288956249999994 Q 6.553038072875975 1.4975981249999994 6.542404947875975 1.4779368749999995 Q 6.531771822875975 1.4582756249999995 6.513916197875975 1.4492474999999996 Q 6.496060572875975 1.4402193749999994 6.473189322875975 1.4402193749999994 Q 6.450719322875975 1.4402193749999994 6.432863697875975 1.4492474999999996 Q 6.415008072875975 1.4582756249999995 6.404374947875975 1.4779368749999995 Q 6.393741822875975 1.4975981249999994 6.392538072875975 1.5288956249999994 Q 6.392136822875975 1.5469518749999995 6.392136822875975 1.5605943749999995 Q 6.392136822875975 1.5742368749999995 6.392538072875975 1.5922931249999994 Q 6.394143072875975 1.6392393749999996 6.416613072875975 1.6601043749999995 Q 6.439083072875975 1.6809693749999994 6.473189322875975 1.6809693749999994 M 6.911268978881834 1.7010318749999995 Q 6.907256478881834 1.7010318749999995 6.904848978881834 1.6986243749999996 Q 6.902441478881834 1.6962168749999995 6.902441478881834 1.6922043749999995 L 6.902441478881834 1.4293856249999994 Q 6.902441478881834 1.4249718749999996 6.904848978881834 1.4225643749999994 Q 6.907256478881834 1.4201568749999995 6.911268978881834 1.4201568749999995 L 7.015995228881834 1.4201568749999995 Q 7.044082728881834 1.4201568749999995 7.061938353881834 1.4301881249999995 Q 7.079793978881834 1.4402193749999994 7.088220228881834 1.4564699999999995 Q 7.0966464788818335 1.4727206249999996 7.0966464788818335 1.4919806249999996 Q 7.0966464788818335 1.5092343749999995 7.091229603881834 1.5214724999999996 Q 7.085812728881834 1.5337106249999994 7.077587103881834 1.5413343749999995 Q 7.0693614788818335 1.5489581249999995 7.061336478881834 1.5529706249999995 Q 7.077386478881834 1.5609956249999994 7.089825228881834 1.5786506249999994 Q 7.102263978881834 1.5963056249999996 7.102263978881834 1.6215843749999994 Q 7.102263978881834 1.6416468749999995 7.092834603881834 1.6599037499999996 Q 7.083405228881834 1.6781606249999996 7.064747103881834 1.6895962499999995 Q 7.0460889788818335 1.7010318749999995 7.018803978881834 1.7010318749999995 L 6.911268978881834 1.7010318749999995 M 6.927720228881834 1.6769568749999995 L 7.014791478881834 1.6769568749999995 Q 7.044483978881834 1.6769568749999995 7.060734603881834 1.6613081249999995 Q 7.076985228881834 1.6456593749999995 7.076985228881834 1.6215843749999994 Q 7.076985228881834 1.5971081249999994 7.060734603881834 1.5816599999999996 Q 7.044483978881834 1.5662118749999996 7.014791478881834 1.5662118749999996 L 6.927720228881834 1.5662118749999996 L 6.927720228881834 1.6769568749999995 M 6.927720228881834 1.5421368749999995 L 7.0107789788818335 1.5421368749999995 Q 7.040471478881834 1.5421368749999995 7.055919603881834 1.5288956249999994 Q 7.0713677288818335 1.5156543749999996 7.0713677288818335 1.4919806249999996 Q 7.0713677288818335 1.4683068749999995 7.055919603881834 1.4562693749999995 Q 7.040471478881834 1.4442318749999994 7.0107789788818335 1.4442318749999994 L 6.927720228881834 1.4442318749999994 L 6.927720228881834 1.5421368749999995 M 7.400310911499022 1.7010318749999995 Q 7.397100911499022 1.7010318749999995 7.394693411499022 1.6986243749999996 Q 7.392285911499021 1.6962168749999995 7.392285911499021 1.6930068749999996 Q 7.392285911499021 1.6910006249999996 7.393088411499022 1.6885931249999995 L 7.494604661499022 1.4281818749999995 Q 7.496209661499022 1.4241693749999995 7.498817786499022 1.4221631249999995 Q 7.501425911499021 1.4201568749999995 7.506240911499022 1.4201568749999995 L 7.519883411499022 1.4201568749999995 Q 7.524698411499021 1.4201568749999995 7.5273065364990215 1.4221631249999995 Q 7.5299146614990216 1.4241693749999995 7.531519661499022 1.4281818749999995 L 7.633035911499022 1.6885931249999995 Q 7.633838411499021 1.6910006249999996 7.633838411499021 1.6930068749999996 Q 7.633838411499021 1.6962168749999995 7.631430911499022 1.6986243749999996 Q 7.629023411499022 1.7010318749999995 7.6258134114990215 1.7010318749999995 L 7.6177884114990215 1.7010318749999995 Q 7.6137759114990216 1.7010318749999995 7.611769661499022 1.6988249999999996 Q 7.609763411499022 1.6966181249999994 7.608960911499022 1.6950131249999996 L 7.584083411499022 1.6308131249999995 L 7.442040911499022 1.6308131249999995 L 7.417163411499022 1.6950131249999996 Q 7.416762161499022 1.6966181249999994 7.414555286499022 1.6988249999999996 Q 7.412348411499022 1.7010318749999995 7.408335911499022 1.7010318749999995 L 7.400310911499022 1.7010318749999995 M 7.451670911499022 1.6067381249999995 L 7.574453411499022 1.6067381249999995 L 7.513062161499022 1.4486456249999995 L 7.451670911499022 1.6067381249999995 M 7.9487492076416 1.7010318749999995 Q 7.9447367076416 1.7010318749999995 7.9423292076416 1.6986243749999996 Q 7.9399217076416 1.6962168749999995 7.9399217076416 1.6922043749999995 L 7.9399217076416 1.4289843749999995 Q 7.9399217076416 1.4249718749999996 7.9423292076416 1.4225643749999994 Q 7.9447367076416 1.4201568749999995 7.9487492076416 1.4201568749999995 L 7.9563729576416 1.4201568749999995 Q 7.9603854576416 1.4201568749999995 7.9627929576416 1.4225643749999994 Q 7.9652004576416005 1.4249718749999996 7.9652004576416005 1.4289843749999995 L 7.9652004576416005 1.6769568749999995 L 8.1036317076416 1.6769568749999995 Q 8.1080454576416 1.6769568749999995 8.1104529576416 1.6793643749999996 Q 8.1128604576416 1.6817718749999995 8.1128604576416 1.6861856249999996 L 8.1128604576416 1.6922043749999995 Q 8.1128604576416 1.6962168749999995 8.1104529576416 1.6986243749999996 Q 8.1080454576416 1.7010318749999995 8.1036317076416 1.7010318749999995 L 7.9487492076416 1.7010318749999995" fill="#8f8f8f" fill-rule="nonzero"></path></g><g clip-path="url(#SvgjsClipPath1002)"><g clip-path="url(#SvgjsClipPath1000891b1596-34b4-47c2-83d1-4ca1e22c3480)"><path d=" M 4.461410693964984 -4.660858603004113 C 1.610586238667071 -1.8153429455745531 0.29021236884165946 -5.938003690187318 2.401597121049528 -7.618617415364272 C 3.3403552886581718 -8.39140627919655 4.617165137396707 -8.61162388562489 5.760557672386063 -8.197953683355442 C 6.903950207375495 -7.7842834810859936 7.744292844213851 -6.79809717174672 7.97128448463231 -5.603549424481972 C 6.71693008501115 -5.939185369701372 5.378810275742317 -5.57978975109266 4.461410693965022 -4.660858603004113 Z" fill="#102036" transform="matrix(1,0,0,1,0,0)" fill-rule="evenodd"></path></g><g clip-path="url(#SvgjsClipPath1000891b1596-34b4-47c2-83d1-4ca1e22c3480)"><path d=" M 4.78448896423814 -4.101159627742112 C 7.635313419536052 -6.946675285171671 8.955687289361425 -2.823256140863431 6.844302537153595 -1.1434008153819608 C 5.905544369544914 -0.3706119515496731 4.628734520806379 -0.15039434512133276 3.4853419858170227 -0.5640645473907817 C 2.341949450827591 -0.9777347496602298 1.501606813989197 -1.9639210589995129 1.2746151735707754 -3.158468806264252 C 2.528969757535375 -2.8223460902146753 3.867333106303581 -3.1818071192809887 4.784488964238177 -4.101159627742112 Z" fill="#3682ae" transform="matrix(1,0,0,1,0,0)" fill-rule="evenodd"></path></g></g></g><defs><clipPath id="SvgjsClipPath1002"><path d=" M 1.2746151735707754 -8.384601107795998 h 6.696669311061573 v 8.007183984845764 h -6.696669311061573 Z"></path></clipPath><clipPath id="SvgjsClipPath1000891b1596-34b4-47c2-83d1-4ca1e22c3480"><path d=" M 1.2746151735707747 -8.384601107795998 L 7.971284484632348 -8.384601107795998 L 7.971284484632348 -0.37741712295023433 L 1.2746151735707743 -0.37741712295023433 Z"></path></clipPath></defs></svg>